HIERARCHY
ROOT pelvis
{
  OFFSET 0 100 0
  CHANNELS 6 Xposition Yposition Zposition Zrotation Xrotation Yrotation
  JOINT pelvis_right_femur
  {
    OFFSET -10.78128 -3.44521 -0.5502486
    CHANNELS 3 Zrotation Xrotation Yrotation
    JOINT right_femur_tibia
    {
      OFFSET -0.8047443 -44.0398 -0.1307829
      CHANNELS 3 Zrotation Xrotation Yrotation
      JOINT right_tibia_foot
      {
        OFFSET 3.006224 -47.83518 -5
        CHANNELS 3 Zrotation Xrotation Yrotation
        End Site
        {
          OFFSET 0 -5 15
        }
      }
    }
  }
  JOINT pelvis_left_femur
  {
    OFFSET 10.78128 -3.44521 -0.5502486
    CHANNELS 3 Zrotation Xrotation Yrotation
    JOINT left_femur_tibia
    {
      OFFSET 0.8047443 -44.0398 -0.1307829
      CHANNELS 3 Zrotation Xrotation Yrotation
      JOINT left_tibia_foot
      {
        OFFSET -4.370144 -48.10324 -4.275266
        CHANNELS 3 Zrotation Xrotation Yrotation
        End Site
        {
          OFFSET 0 -5 15
        }
      }
    }
  }
  JOINT pelvis_spine1
  {
    OFFSET 0 6.468898 -3.129235
    CHANNELS 3 Zrotation Xrotation Yrotation
    JOINT spine1
    {
      OFFSET 0 23.15396 4.99043
      CHANNELS 3 Zrotation Xrotation Yrotation
      JOINT spine2
      {
        OFFSET 0 20.79997 -5.064912
        CHANNELS 3 Zrotation Xrotation Yrotation
        JOINT neck
        {
          OFFSET 0 14.38658 9.616178
          CHANNELS 3 Zrotation Xrotation Yrotation
          End Site
          {
            OFFSET 0 20 0
          }
        }
      }
      JOINT right_manubrium
      {
        OFFSET -5.722621 16.35077 3.967754
        CHANNELS 3 Zrotation Xrotation Yrotation
        JOINT right_clavicle
        {
          OFFSET -13.16364 1.694482 -4.693211
          CHANNELS 3 Zrotation Xrotation Yrotation
          JOINT right_humerus
          {
            OFFSET -28.5034 -0.3100689 -2.792744
            CHANNELS 3 Zrotation Xrotation Yrotation
            JOINT right_radius
            {
              OFFSET -25.15693 0.02248979 -1.271978
              CHANNELS 3 Zrotation Xrotation Yrotation
              End Site
              {
                OFFSET -15 0 0
              }
            }
          }
        }
      }
      JOINT left_manubrium
      {
        OFFSET 5.722621 16.35077 3.967754
        CHANNELS 3 Zrotation Xrotation Yrotation
        JOINT left_clavicle
        {
          OFFSET 13.16364 1.694482 -4.693211
          CHANNELS 3 Zrotation Xrotation Yrotation
          JOINT left_humerus
          {
            OFFSET 29.39168 -1.063119 -2.237045
            CHANNELS 3 Zrotation Xrotation Yrotation
            JOINT left_radius
            {
              OFFSET 24.59957 -0.9528479 0.9047498
              CHANNELS 3 Zrotation Xrotation Yrotation
              End Site
              {
                OFFSET 15 -0 -0
              }
            }
          }
        }
      }
    }
  }
}
MOTION
Frames: 18
Frame Time: 0.0416666666667
36.61268 102.5073 241.4407 1.296681 -6.475756 1.910636 1.355455 12.15932 5.162969 2.224453e-10 33.2316 -1.449213e-10 -2.871637 -10.61369 -2.441024 -2.830322 -17.1488 -9.700497 8.48689e-11 17.35079 1.002763e-10 -1.798329 -9.116673 21.57401 -2.023131 -0.7322155 7.480798 -0.5925006 10.68274 -3.695551 2.046169 22.84186 4.886676 1.990849 -19.16628 7.38351 2.376499 -22.46312 11.14435 82.75792 27.50858 -7.273544 1.271118e-11 2.593779e-12 22.16573 -21.78509 11.49816 12.53698 3.967014 -16.5439 -3.229744 -95.67637 22.21213 28.04111 9.196449e-12 1.022193e-11 -7.311868 2.221656 11.61056 12.01193
37.7319 102.4681 246.4677 1.34145 -6.089789 1.957174 1.154241 9.40502 5.243105 1.80903e-10 35.04357 -1.199342e-10 -2.743973 -10.15515 -2.646112 -3.536078 -14.54128 -10.78648 8.223492e-11 14.87886 1.030441e-10 -1.334855 -10.44436 21.71791 -2.290015 -0.8212417 7.117544 -0.4336072 10.50901 -4.011805 2.00366 22.94582 5.168536 2.094189 -19.51159 7.659479 2.705199 -22.14117 11.12166 83.43084 28.20942 -8.194701 9.890385e-12 1.071838e-12 21.64845 -21.25587 11.43227 12.27773 4.160306 -16.75601 -3.152133 -95.78183 22.86564 27.33689 8.084241e-12 9.01439e-12 -8.202192 2.237908 11.8216 12.09905
38.8198 102.3966 251.3391 1.388167 -5.590884 2.146912 0.9912498 5.573375 5.282231 1.224305e-10 36.97244 -8.274451e-11 -2.653582 -9.527758 -2.940157 -4.334095 -10.94116 -12.06678 7.651934e-11 12.17561 1.029445e-10 -0.7687213 -12.13612 21.84063 -2.597708 -0.9323706 6.625989 -0.2036179 10.31369 -4.464592 1.946218 23.08685 5.524542 2.23225 -19.97531 8.006035 3.10325 -21.6849 11.10271 84.50422 29.07277 -9.613015 6.17095e-12 -7.735091e-13 20.83162 -20.54208 11.36694 11.88221 4.430923 -17.14033 -3.08817 -95.85858 23.66129 26.27924 6.490856e-12 7.29659e-12 -9.557889 2.346134 12.12721 12.09887
39.84361 102.2973 256.0232 1.394003 -4.996678 2.465631 0.9594602 0.8244259 5.188917 5.012552e-11 38.07602 -3.446309e-11 -2.659016 -8.695363 -3.286493 -5.018086 -6.492979 -13.20002 6.516723e-11 9.946764 9.560807e-11 -0.2250436 -13.86447 21.66829 -2.851096 -1.040743 5.990677 0.09196344 10.06331 -5.003981 1.872224 23.06222 5.857048 2.35864 -20.35397 8.296471 3.450763 -20.93458 10.99776 85.23719 29.81945 -11.291 1.884234e-12 -2.588296e-12 19.49914 -19.52015 11.25182 11.22401 4.731383 -17.61389 -3.059687 -94.97246 24.47511 24.49434 4.392847e-12 5.0801e-12 -11.33207 2.610443 12.41877 11.80102
40.78682 102.1734 260.5486 1.361633 -4.44478 2.881753 1.062436 -3.95902 5.019374 -2.009917e-11 38.29851 1.327082e-11 -2.778122 -7.85444 -3.636693 -5.501724 -2.05857 -14.05097 5.016669e-11 8.703809 8.255058e-11 0.1905934 -15.37099 21.32818 -3.012792 -1.13223 5.359925 0.4013374 9.856384 -5.555848 1.80038 22.99079 6.13048 2.46782 -20.67647 8.518957 3.709647 -20.13032 10.88852 85.97974 30.39151 -13.09333 -2.161534e-12 -3.98965e-12 17.98756 -18.48508 11.14893 10.4891 5.027766 -18.18319 -3.086405 -93.78766 25.10788 22.48886 2.174704e-12 2.822108e-12 -13.26042 2.996536 12.70334 11.30931
41.62658 102.0399 264.931 1.278606 -3.936968 3.351116 1.293089 -8.59914 4.762769 -8.270887e-11 37.37128 5.546624e-11 -3.000801 -6.992994 -3.957532 -5.771624 2.211393 -14.52954 3.165577e-11 8.522918 6.364715e-11 0.4311325 -16.51225 20.69534 -3.05482 -1.197969 4.729087 0.7114019 9.654251 -6.074587 1.730734 22.75595 6.29974 2.53191 -20.82549 8.612166 3.835849 -19.19605 10.72001 86.19582 30.69205 -14.76868 -5.789273e-12 -4.87738e-12 16.2439 -17.37219 11.01404 9.634124 5.285237 -18.74525 -3.160072 -91.81225 25.49169 20.11 -1.125205e-13 5.873048e-13 -15.22345 3.493148 12.90269 10.56857
42.33953 101.9105 269.2302 1.142704 -3.532617 3.821374 1.690058 -12.99382 4.450861 -1.324285e-10 35.30076 8.747186e-11 -3.37604 -6.182885 -4.262589 -5.864146 6.170643 -14.66257 1.0009e-11 9.763208 3.891316e-11 0.4679631 -17.28187 19.8628 -2.966258 -1.241919 4.15292 1.024479 9.539766 -6.585702 1.669643 22.49831 6.381389 2.569275 -20.91082 8.61227 3.83775 -18.26883 10.57803 86.48918 30.76429 -16.5307 -8.79232e-12 -5.165225e-12 14.38137 -16.33645 10.91646 8.739262 5.523586 -19.42964 -3.311365 -89.70069 25.54389 17.64189 -2.405135e-12 -1.567786e-12 -17.29369 4.133874 13.08685 9.614183
42.9158 101.7971 273.5049 0.973802 -3.247028 4.248509 2.196886 -16.86012 4.129992 -1.668216e-10 32.42701 1.074929e-10 -3.852486 -5.475902 -4.529934 -5.829587 9.576402 -14.50824 -1.184949e-11 12.1083 1.174508e-11 0.3328479 -17.68116 18.9228 -2.774508 -1.266036 3.666093 1.318149 9.508661 -7.054176 1.619872 22.24385 6.384367 2.581788 -20.93923 8.53524 3.735964 -17.41837 10.47297 86.83113 30.63782 -18.23489 -1.102717e-11 -4.940426e-12 12.55889 -15.44401 10.85868 7.877376 5.727426 -20.16931 -3.51707 -87.67031 25.29912 15.30795 -4.538957e-12 -3.487171e-12 -19.30313 4.84981 13.24071 8.551602
43.35318 101.7095 277.7615 0.794356 -2.996809 4.619291 2.702986 -20.39605 3.825083 -1.939027e-10 29.31366 1.214348e-10 -4.327123 -4.803371 -4.758325 -5.759842 12.6793 -14.23808 -3.214565e-11 14.65377 -1.467519e-11 0.1398003 -17.90294 17.91812 -2.550765 -1.280739 3.209276 1.590403 9.470958 -7.471728 1.573569 21.92706 6.343838 2.572697 -20.88388 8.408015 3.591709 -16.56299 10.34751 86.85407 30.42286 -19.7293 -1.292488e-11 -4.520578e-12 10.76763 -14.57019 10.77511 7.023557 5.895831 -20.83561 -3.722256 -85.44693 24.89611 12.99259 -6.577548e-12 -5.219914e-12 -21.16688 5.552957 13.32814 7.465819
43.67012 101.6446 282.0502 0.6277173 -2.864705 4.91779 3.212437 -23.13763 3.581274 -2.091616e-10 26.27813 1.272385e-10 -4.803995 -4.307873 -4.942491 -5.657194 15.0192 -13.87984 -4.873459e-11 17.51526 -3.812699e-11 -0.1107954 -17.9161 17.05739 -2.306316 -1.286245 2.884612 1.816951 9.516087 -7.823039 1.541537 21.72396 6.28118 2.562868 -20.8625 8.281168 3.422579 -15.93027 10.2979 87.18378 30.14964 -21.0824 -1.408733e-11 -3.899782e-12 9.30406 -13.95902 10.75763 6.343004 6.032356 -21.49436 -3.937491 -83.90844 24.39948 11.22556 -8.227667e-12 -6.56138e-12 -22.77169 6.207618 13.41852 6.501137
43.90299 101.5999 286.3979 0.5015656 -2.835083 5.145095 3.637654 -24.84482 3.415243 -2.142011e-10 23.81183 1.271485e-10 -5.1984 -4.01905 -5.063141 -5.547211 16.42001 -13.51504 -5.980998e-11 20.09084 -5.552147e-11 -0.3552729 -17.77451 16.43954 -2.08894 -1.283525 2.706275 1.972075 9.606954 -8.064549 1.524748 21.62524 6.211474 2.55231 -20.85941 8.172589 3.262323 -15.55459 10.30389 87.61941 29.87481 -22.07865 -1.45312e-11 -3.268856e-12 8.316736 -13.62785 10.78874 5.895935 6.120435 -22.0242 -4.121439 -83.06432 23.94767 10.13069 -9.306209e-12 -7.414332e-12 -23.90943 6.712745 13.49065 5.784879
44.10335 101.5662 290.8609 0.4355797 -2.952536 5.305147 3.977629 -25.33191 3.355562 -2.082149e-10 22.25189 1.216572e-10 -5.513335 -4.023957 -5.134333 -5.435928 16.68503 -13.21771 -6.466178e-11 22.37541 -6.561347e-11 -0.5738171 -17.53896 16.24288 -1.921378 -1.276392 2.734672 2.048161 9.810847 -8.208526 1.530206 21.78675 6.169692 2.565405 -20.9981 8.141457 3.142263 -15.60348 10.44264 88.76081 29.64037 -22.85601 -1.413451e-11 -2.690096e-12 8.005863 -13.74455 10.94649 5.798223 6.17838 -22.50676 -4.281045 -83.61608 23.67518 10.05948 -9.659387e-12 -7.701491e-12 -24.56482 7.051462 13.62592 5.42932
44.3035 101.5451 295.4659 0.4016528 -3.190459 5.383225 4.259586 -24.6083 3.318292 -1.893182e-10 20.93317 1.091409e-10 -5.765918 -4.245393 -5.125141 -5.25531 15.84884 -12.78626 -6.479866e-11 24.64283 -7.109466e-11 -0.8351187 -16.9986 16.20048 -1.743847 -1.249751 2.919561 2.04306 10.05584 -8.211147 1.552589 21.98353 6.079966 2.557804 -21.07616 8.078294 2.985542 -15.87386 10.60904 89.70249 29.3327 -23.13569 -1.27988e-11 -2.0044e-12 8.134553 -14.12475 11.14261 5.910757 6.164399 -22.8153 -4.419169 -84.54563 23.38233 10.56663 -9.334648e-12 -7.516911e-12 -24.68699 7.248005 13.70465 5.265556
44.52636 101.5398 300.2876 0.3781228 -3.631119 5.332852 4.591292 -22.44113 3.270396 -1.51254e-10 19.28626 8.576727e-11 -6.053065 -4.751396 -5.032597 -4.914489 13.63833 -12.03971 -6.057762e-11 27.76517 -7.468746e-11 -1.242491 -15.93919 16.26814 -1.484474 -1.191492 3.319405 1.955893 10.42373 -8.071905 1.599737 22.26283 5.901706 2.52239 -21.10201 7.948486 2.727856 -16.43797 10.85139 90.70405 28.83894 -23.00692 -1.005374e-11 -9.216622e-13 8.711988 -14.88357 11.43576 6.256677 6.070916 -23.05507 -4.588467 -86.06851 22.91981 11.76307 -8.237993e-12 -6.811752e-12 -24.3309 7.381403 13.74529 5.209341
44.79061 101.5624 305.3192 0.3693226 -4.161089 5.138892 4.844684 -19.00768 3.1888 -1.006813e-10 17.62638 5.622236e-11 -6.248638 -5.423508 -4.830804 -4.426589 10.31982 -11.0518 -5.202603e-11 30.7777 -7.463172e-11 -1.711135 -14.46222 16.34915 -1.196271 -1.10262 3.839002 1.773906 10.75949 -7.742671 1.660187 22.40823 5.629619 2.435899 -20.91537 7.717771 2.397145 -17.0838 11.03264 90.78999 28.24663 -22.11809 -6.366925e-12 3.653305e-13 9.610174 -15.77227 11.68201 6.735162 5.871965 -22.97736 -4.718486 -87.22363 22.31195 13.24104 -6.473726e-12 -5.62229e-12 -23.32713 7.346811 13.63246 5.277056
45.10504 101.6184 310.5501 0.3672775 -4.736489 4.798829 5.031732 -14.79755 3.095191 -4.391815e-11 16.12321 2.440181e-11 -6.363213 -6.197856 -4.56211 -3.820104 6.337435 -9.944096 -4.062716e-11 33.53386 -7.18256e-11 -2.195813 -12.77534 16.48056 -0.9088401 -0.9958309 4.429492 1.529107 11.06469 -7.293492 1.728304 22.4786 5.311206 2.323182 -20.6078 7.439059 2.038197 -17.78789 11.17261 90.3424 27.61328 -20.76229 -2.188098e-12 1.773607e-12 10.73549 -16.74205 11.88915 7.309597 5.611382 -22.68628 -4.811649 -88.18591 21.64377 14.91051 -4.316262e-12 -4.079361e-12 -21.89915 7.187268 13.42827 5.455304
45.47731 101.709 315.9876 0.371231 -5.354304 4.318236 5.168683 -10.07298 3.025002 1.620063e-11 14.99966 -8.180716e-12 -6.416638 -7.072758 -4.263515 -3.125238 1.907243 -8.820525 -2.704482e-11 36.01585 -6.641617e-11 -2.672206 -11.04303 16.76195 -0.6472953 -0.8821799 5.088249 1.242569 11.38044 -6.783536 1.804618 22.59639 4.994005 2.212577 -20.30768 7.175661 1.694776 -18.61808 11.32884 89.95 26.99419 -19.22665 2.248524e-12 3.261608e-12 12.1103 -17.84781 12.1006 8.010314 5.329017 -22.31117 -4.878987 -89.44586 20.98545 16.87302 -1.906608e-12 -2.227782e-12 -20.21657 6.937634 13.2166 5.775876
45.91854 101.8303 321.505 0.4106254 -5.795956 3.772032 5.024968 -5.491911 3.031223 6.685397e-11 15.13642 -3.548281e-11 -6.197681 -7.818989 -3.922315 -2.541601 -2.218111 -7.994705 -1.263861e-11 36.36622 -5.331779e-11 -2.941721 -9.656624 17.09944 -0.5415106 -0.7851443 5.632957 0.9236236 11.46491 -6.199715 1.863505 22.50438 4.729706 2.09562 -19.87124 6.942129 1.467271 -19.25359 11.32152 88.46748 26.55658 -17.19247 5.83611e-12 4.24297e-12 13.52169 -18.67474 12.12255 8.667416 5.024222 -21.54182 -4.798111 -89.84596 20.59063 18.57573 4.140804e-13 -2.477278e-13 -18.16707 6.443641 12.88009 6.308494
